<svg t="1700581228922" class="icon" viewBox="0 0 1024 1024" version="1.1"
  xmlns="http://www.w3.org/2000/svg" p-id="2177" width="32" height="32">
  <path d="M808.234667 466.858667c96.469333 80.981333 112.213333 221.610667 34.56 314.197333-59.690667 71.125333-158.72 94.208-246.869334 60.8l-8.789333-3.498667 15.146667-35.84c74.837333 31.829333 160.170667 13.568 210.602666-46.506666 63.616-75.861333 50.645333-192-29.653333-259.413334-50.389333-42.24-116.821333-56.106667-176.170667-38.912l-8.405333 2.688-12.842667-36.821333c74.325333-25.6 159.061333-9.813333 222.421334 43.306667z" fill="#A855F7" p-id="2178"></path>
  <path d="M405.333333 362.666667a277.333333 277.333333 0 1 1 0 554.666666 277.333333 277.333333 0 0 1 0-554.666666z m0 39.637333a237.696 237.696 0 1 0 0 475.392 237.696 237.696 0 0 0 0-475.392z" fill="#A855F7" p-id="2179"></path>
  <path d="M403.626667 143.146667a38.528 38.528 0 0 1 39.253333-26.026667l4.736 0.64 12.288 2.602667c72.533333 16.768 123.861333 51.2 154.026667 103.466666 35.968 62.336 34.986667 138.197333-2.986667 227.541334-96.426667-11.776-162.56-48.810667-198.570667-111.189334-31.829333-55.125333-34.773333-120.789333-8.746666-197.034666z m36.778666 12.885333l-3.712 11.562667c-18.517333 60.928-14.933333 111.274667 9.258667 153.173333 25.045333 43.392 69.12 72.234667 134.741333 86.186667l5.12 0.981333 1.706667-4.949333c19.626667-60.288 18.090667-110.506667-3.242667-152.448l-3.968-7.338667c-22.826667-39.509333-61.184-66.773333-116.864-81.792l-11.349333-2.858667-11.690667-2.517333z" fill="#A855F7" p-id="2180"></path>
  <path d="M843.221333 302.677333a30.848 30.848 0 0 0-19.797333-35.669333l-4.096-1.152-10.581333-2.005333c-49.066667-8.234667-93.184-1.066667-132.224 21.461333-49.877333 28.8-82.090667 77.226667-96.682667 145.408 66.304 21.418667 124.373333 17.749333 174.293333-11.050667 39.04-22.528 67.242667-57.130667 84.650667-103.765333l3.584-10.154667a31.146667 31.146667 0 0 0 0.853333-3.072z m-40.874666-0.426666l-0.469334 1.322666c-14.336 37.845333-36.565333 64.853333-67.157333 82.517334-29.738667 17.152-63.402667 23.125333-102.144 17.365333l-4.181333-0.725333 1.450666-4.053334c13.141333-33.408 32.725333-58.154667 58.794667-75.306666l7.296-4.48c28.330667-16.341333 59.946667-22.442667 95.488-18.261334l10.922667 1.621334z" fill="#A855F7" p-id="2181"></path>
</svg>
